<mxfile host="65bd71144e">
    <diagram id="IA0mEADynli1XAGwgyaf" name="Page-1">
        <mxGraphModel dx="896" dy="668" grid="1" gridSize="10" guides="1" tooltips="1" connect="1" arrows="1" fold="1" page="1" pageScale="1" pageWidth="850" pageHeight="1100" background="#ffffff" math="0" shadow="0">
            <root>
                <mxCell id="0"/>
                <mxCell id="1" parent="0"/>
                <mxCell id="27" value="" style="rounded=1;whiteSpace=wrap;html=1;fillColor=none;fontColor=#333333;strokeColor=#666666;arcSize=8;" vertex="1" parent="1">
                    <mxGeometry x="222" y="363" width="436" height="110" as="geometry"/>
                </mxCell>
                <mxCell id="29" value="" style="rounded=1;whiteSpace=wrap;html=1;fillColor=#dae8fc;strokeColor=#6c8ebf;" vertex="1" parent="1">
                    <mxGeometry x="389" y="381" width="90" height="73.5" as="geometry"/>
                </mxCell>
                <mxCell id="20" value="" style="shape=image;editableCssRules=.*;verticalLabelPosition=bottom;labelBackgroundColor=default;verticalAlign=top;aspect=fixed;imageAspect=0;image=data:image/svg+xml,PHN2ZyB4bWxuczp4bGluaz0iaHR0cDovL3d3dy53My5vcmcvMTk5OS94bGluayIgeG1sbnM9Imh0dHA6Ly93d3cudzMub3JnLzIwMDAvc3ZnIiBvdmVyZmxvdz0iaGlkZGVuIiB4bWw6c3BhY2U9InByZXNlcnZlIiBoZWlnaHQ9Ijk3IiB3aWR0aD0iOTYiIHZpZXdCb3g9IjAgMCA5NiA5NyI+PHN0eWxlIHR5cGU9InRleHQvY3NzIj4uc3QwIHsgZmlsbDogbGlnaHQtZGFyayhyZ2IoMCwgMCwgMCksIHJnYigyNTUsIDI1NSwgMjU1KSk7IGZpbGwtcnVsZTogbm9uemVybzsgZmlsbC1vcGFjaXR5OiAxOyB9IDwvc3R5bGU+PGcgdHJhbnNmb3JtPSJ0cmFuc2xhdGUoLTEwNDAgLTUyMSkiPjxnPjxnPjxnPjxnPjxwYXRoIGZpbGwtb3BhY2l0eT0iMSIgZmlsbC1ydWxlPSJub256ZXJvIiBmaWxsPSIjMDAwMDAwIiBkPSJNMTExNCA1OTcgMTEwMiA1OTcgMTEwMiA1ODggMTExNCA1ODggMTExNCA1OTdaTTEwOTQgNTk3IDEwODIgNTk3IDEwODIgNTg4IDEwOTQgNTg4IDEwOTQgNTk3Wk0xMDc0IDU5NyAxMDYyIDU5NyAxMDYyIDU4OCAxMDc0IDU4OCAxMDc0IDU5N1pNMTA5NSA1NzcgMTA5NSA1NjMgMTA2OCA1NzcgMTA2NSA1MzYgMTA1NyA1MzYgMTA1NCA1NzcgMTA1NCA2MDQgMTEyMiA2MDQgMTEyMiA1NzcgMTEyMiA1NjMgMTA5NSA1NzdaIiBjbGFzcz0ic3QwIi8+PC9nPjwvZz48L2c+PC9nPjwvZz48L3N2Zz4=;" vertex="1" parent="1">
                    <mxGeometry x="681.5400000000001" y="548.5" width="52.46" height="53" as="geometry"/>
                </mxCell>
                <mxCell id="21" value="" style="shape=image;editableCssRules=.*;verticalLabelPosition=bottom;labelBackgroundColor=default;verticalAlign=top;aspect=fixed;imageAspect=0;image=data:image/svg+xml,PHN2ZyB4bWxuczp4bGluaz0iaHR0cDovL3d3dy53My5vcmcvMTk5OS94bGluayIgeG1sbnM9Imh0dHA6Ly93d3cudzMub3JnLzIwMDAvc3ZnIiBvdmVyZmxvdz0iaGlkZGVuIiB4bWw6c3BhY2U9InByZXNlcnZlIiBoZWlnaHQ9Ijk3IiB3aWR0aD0iOTciIHZpZXdCb3g9IjAgMCA5NyA5NyI+PHN0eWxlIHR5cGU9InRleHQvY3NzIj4uc3QwIHsgZmlsbDogbGlnaHQtZGFyayhyZ2IoMCwgMCwgMCksIHJnYigyNTUsIDI1NSwgMjU1KSk7IGZpbGwtcnVsZTogbm9uemVybzsgZmlsbC1vcGFjaXR5OiAxOyB9IDwvc3R5bGU+PGcgdHJhbnNmb3JtPSJ0cmFuc2xhdGUoLTc5MiAtNTQ0KSI+PGc+PGc+PGc+PGc+PHBhdGggZmlsbC1vcGFjaXR5PSIxIiBmaWxsLXJ1bGU9Im5vbnplcm8iIGZpbGw9IiMwMDAwMDAiIGQ9Ik04NzEuOCA1NjYuMzkgODc1LjM2MSA1NjIuODU1Qzg3Ni4xMzYgNTYyLjE3NCA4NzYuMjEyIDU2MC45OTQgODc1LjUzMSA1NjAuMjE5IDg3NS40OTMgNTYwLjE3NSA4NzUuNDUyIDU2MC4xMzMgODc1LjQxIDU2MC4wOTNMODcxLjkxIDU1Ni41OTNDODcxLjE1MiA1NTUuODE3IDg2OS45MDcgNTU1LjgwMiA4NjkuMTMxIDU1Ni41NjEgODY5LjEyIDU1Ni41NzEgODY5LjExIDU1Ni41ODIgODY5LjA5OSA1NTYuNTkzTDg2NS41MzggNTYwLjEyOFoiIGNsYXNzPSJzdDAiLz48cGF0aCBmaWxsLW9wYWNpdHk9IjEiIGZpbGwtcnVsZT0ibm9uemVybyIgZmlsbD0iIzAwMDAwMCIgZD0iTTg1OS4wMDIgNjA1LjUgODU5LjAwMiA2MDIuNSA4NTEuNTAyIDYwMi41IDg1MS41MDIgNjEzLjUgODUwLjAwMiA2MTMuNSA4NTAuMDAyIDYxNi41IDg2OS41MDIgNjE2LjUgODY5LjUwMiA1ODEuNSA4NjEuMDYxIDU4MS41IDg1OC4wNjEgNTg0LjUgODY2LjUwMiA1ODQuNSA4NjYuNTAyIDU5My41IDg1MSA1OTMuNSA4NTEgNTk2LjUgODY2LjUwMiA1OTYuNSA4NjYuNTAyIDYwMi41IDg2NC4wMDIgNjAyLjUgODY0LjAwMiA2MDUuNSA4NjYuNTAyIDYwNS41IDg2Ni41MDIgNjEzLjUgODU0LjUwMiA2MTMuNSA4NTQuNTAyIDYwNS41IDg1OS4wMDIgNjA1LjVaIiBjbGFzcz0ic3QwIi8+PHBhdGggZmlsbC1vcGFjaXR5PSIxIiBmaWxsLXJ1bGU9Im5vbnplcm8iIGZpbGw9IiMwMDAwMDAiIGQ9Ik04NzQuNTYxIDU2OCA4NjguNTYxIDU3NCA4NzYgNTc0IDg3NiA2MjMgODE3LjQ3NSA2MjNDODE3LjcwNyA2MjIuMzU0IDgxNy44NjMgNjIxLjY4MiA4MTcuOTQxIDYyMUw4MTggNjIwIDgxOCA1NzQgODQ3LjQ4IDU3NCA4NTMuNDY5IDU2OCA4MTggNTY4IDgxOCA1NjdDODE4IDU2Mi4wMjkgODEzLjk3MSA1NTggODA5IDU1OCA4MDQuMDI5IDU1OCA4MDAgNTYyLjAyOSA4MDAgNTY3TDgwMCA2MjAgODAwLjA1OSA2MjFDODAwLjU1NyA2MjUuMzgyIDgwNC4xNTQgNjI4Ljc1OSA4MDguNTU5IDYyOC45NzhMODA4LjU1OSA2MjkgODgyIDYyOSA4ODIgNTY4Wk04MDkgNjIzQzgwNy4zNDMgNjIzIDgwNiA2MjEuNjU3IDgwNiA2MjAgODA2IDYxOC4zNDMgODA3LjM0MyA2MTcgODA5IDYxNyA4MTAuNjU3IDYxNyA4MTIgNjE4LjM0MyA4MTIgNjIwIDgxMiA2MjEuNjU3IDgxMC42NTcgNjIzIDgwOSA2MjNaTTgxMiA2MTEuNTI1QzgxMC4wNjEgNjEwLjgyNSA4MDcuOTM5IDYxMC44MjUgODA2IDYxMS41MjVMODA2IDU2N0M4MDYgNTY1LjM0MyA4MDcuMzQzIDU2NCA4MDkgNTY0IDgxMC42NTcgNTY0IDgxMiA1NjUuMzQzIDgxMiA1NjdaIiBjbGFzcz0ic3QwIi8+PHBhdGggZmlsbC1vcGFjaXR5PSIxIiBmaWxsLXJ1bGU9Im5vbnplcm8iIGZpbGw9IiMwMDAwMDAiIGQ9Ik04MzcuMDAxIDU4NC41IDgzOS45OTUgNTgxLjUgODI0LjUgNTgxLjUgODI0LjUgNjE2LjUgODQ0LjAwMiA2MTYuNSA4NDQuMDAyIDYxMy41IDg0Mi41MDIgNjEzLjUgODQyLjUwMiA2MDIuNSA4MzUuMDAyIDYwMi41IDgzNS4wMDIgNjA1LjUgODM5LjUwMiA2MDUuNSA4MzkuNTAyIDYxMy41IDgyNy41IDYxMy41IDgyNy41IDYwNS41IDgzMC4wMDIgNjA1LjUgODMwLjAwMiA2MDIuNSA4MjcuNSA2MDIuNSA4MjcuNSA1OTYuNSA4MzMuMDExIDU5Ni41IDgzNC4wMDYgNTkzLjUgODI3LjUgNTkzLjUgODI3LjUgNTg0LjUgODM3LjAwMSA1ODQuNVoiIGNsYXNzPSJzdDAiLz48cGF0aCBmaWxsLW9wYWNpdHk9IjEiIGZpbGwtcnVsZT0ibm9uemVybyIgZmlsbD0iIzAwMDAwMCIgZD0iTTg2NC4xNCA1NjEuNTU0IDgzOS42MDkgNTg2LjEzMyA4MzYuNSA1OTUuNSA4NDUuOTIgNTkyLjM5MyA4NzAuNDUgNTY3Ljg2MlpNODQ0Ljg4NiA1OTAuNjcgODQwLjY5NCA1OTIuMDUyIDgzOS45NTUgNTkxLjMxMiA4NDEuMzM1IDU4Ny4xMkM4NDIuMzM3IDU4Ni4xNzIgODQzLjkxMSA1ODYuMTk0IDg0NC44ODYgNTg3LjE2OSA4NDUuODUzIDU4OC4xMDggODQ1Ljg3NSA1ODkuNjUzIDg0NC45MzcgNTkwLjYxOSA4NDQuOTIgNTkwLjYzNiA4NDQuOTAzIDU5MC42NTMgODQ0Ljg4NiA1OTAuNjdaIiBjbGFzcz0ic3QwIi8+PC9nPjwvZz48L2c+PC9nPjwvZz48L3N2Zz4=;" vertex="1" parent="1">
                    <mxGeometry x="680" y="391" width="54" height="54" as="geometry"/>
                </mxCell>
                <mxCell id="22" value="" style="shape=image;editableCssRules=.*;verticalLabelPosition=bottom;labelBackgroundColor=default;verticalAlign=top;aspect=fixed;imageAspect=0;image=data:image/svg+xml,PHN2ZyB4bWxuczp4bGluaz0iaHR0cDovL3d3dy53My5vcmcvMTk5OS94bGluayIgeG1sbnM9Imh0dHA6Ly93d3cudzMub3JnLzIwMDAvc3ZnIiBvdmVyZmxvdz0iaGlkZGVuIiB4bWw6c3BhY2U9InByZXNlcnZlIiBoZWlnaHQ9Ijk3IiB3aWR0aD0iOTgiIHZpZXdCb3g9IjAgMCA5OCA5NyI+PHN0eWxlIHR5cGU9InRleHQvY3NzIj4uc3QwIHsgZmlsbDogbGlnaHQtZGFyayhyZ2IoMCwgMCwgMCksIHJnYigyNTUsIDI1NSwgMjU1KSk7IGZpbGwtcnVsZTogbm9uemVybzsgZmlsbC1vcGFjaXR5OiAxOyB9IDwvc3R5bGU+PGcgdHJhbnNmb3JtPSJ0cmFuc2xhdGUoLTQ1OCAtNTY5KSI+PGc+PGc+PGc+PGc+PHBhdGggZmlsbC1vcGFjaXR5PSIxIiBmaWxsLXJ1bGU9Im5vbnplcm8iIGZpbGw9IiMwMDAwMDAiIGQ9Ik01MDkgNjAzQzUwOSA2MDQuMTA1IDUwOC4xMDUgNjA1IDUwNyA2MDUgNTA1Ljg5NSA2MDUgNTA1IDYwNC4xMDUgNTA1IDYwMyA1MDUgNjAxLjg5NSA1MDUuODk1IDYwMSA1MDcgNjAxIDUwOC4xMDUgNjAxIDUwOSA2MDEuODk1IDUwOSA2MDNaIiBjbGFzcz0ic3QwIi8+PHBhdGggZmlsbC1vcGFjaXR5PSIxIiBmaWxsLXJ1bGU9Im5vbnplcm8iIGZpbGw9IiMwMDAwMDAiIGQ9Ik01MDkgNjQzQzUwOSA2NDQuMTA1IDUwOC4xMDUgNjQ1IDUwNyA2NDUgNTA1Ljg5NSA2NDUgNTA1IDY0NC4xMDUgNTA1IDY0MyA1MDUgNjQxLjg5NSA1MDUuODk1IDY0MSA1MDcgNjQxIDUwOC4xMDUgNjQxIDUwOSA2NDEuODk1IDUwOSA2NDNaIiBjbGFzcz0ic3QwIi8+PHBhdGggZmlsbC1vcGFjaXR5PSIxIiBmaWxsLXJ1bGU9Im5vbnplcm8iIGZpbGw9IiMwMDAwMDAiIGQ9Ik01MjkgNjIyQzUyOSA2MjMuMTA1IDUyOC4xMDUgNjI0IDUyNyA2MjQgNTI1Ljg5NSA2MjQgNTI1IDYyMy4xMDUgNTI1IDYyMiA1MjUgNjIwLjg5NSA1MjUuODk1IDYyMCA1MjcgNjIwIDUyOC4xMDUgNjIwIDUyOSA2MjAuODk1IDUyOSA2MjJaIiBjbGFzcz0ic3QwIi8+PHBhdGggZmlsbC1vcGFjaXR5PSIxIiBmaWxsLXJ1bGU9Im5vbnplcm8iIGZpbGw9IiMwMDAwMDAiIGQ9Ik00ODkgNjIyQzQ4OSA2MjMuMTA1IDQ4OC4xMDUgNjI0IDQ4NyA2MjQgNDg1Ljg5NSA2MjQgNDg1IDYyMy4xMDUgNDg1IDYyMiA0ODUgNjIwLjg5NSA0ODUuODk1IDYyMCA0ODcgNjIwIDQ4OC4xMDUgNjIwIDQ4OSA2MjAuODk1IDQ4OSA2MjJaIiBjbGFzcz0ic3QwIi8+PHBhdGggZmlsbC1vcGFjaXR5PSIxIiBmaWxsLXJ1bGU9Im5vbnplcm8iIGZpbGw9IiMwMDAwMDAiIGQ9Ik01MDkgNjA4IDUwNSA2MDggNTA1IDYyMkM1MDUgNjIyLjUgNTA1LjIgNjIzIDUwNS42IDYyMy40TDUxNS41IDYzMy4zIDUxOC4zIDYzMC41IDUwOSA2MjEuMiA1MDkgNjA4WiIgY2xhc3M9InN0MCIvPjxwYXRoIGZpbGwtb3BhY2l0eT0iMSIgZmlsbC1ydWxlPSJub256ZXJvIiBmaWxsPSIjMDAwMDAwIiBkPSJNNTA3IDY1MUM0OTEuNSA2NTEgNDc5IDYzOC41IDQ3OSA2MjMgNDc5IDYwNy41IDQ5MS41IDU5NSA1MDcgNTk1IDUyMi41IDU5NSA1MzUgNjA3LjUgNTM1IDYyMyA1MzUgNjM4LjUgNTIyLjUgNjUxIDUwNyA2NTFMNTA3IDY1MVpNNTMwLjcgNTk4LjYgNTMzLjcgNTk1LjZDNTM0LjggNTk0LjQgNTM0LjggNTkyLjYgNTMzLjYgNTkxLjQgNTMyLjUgNTkwLjMgNTMwLjYgNTkwLjIgNTI5LjQgNTkxLjNMNTI2IDU5NC44QzUyMS4yIDU5MS42IDUxNS43IDU4OS42IDUxMCA1ODkuMkw1MTAgNTg1IDUxOSA1ODUgNTE5IDU3OSA0OTUgNTc5IDQ5NSA1ODUgNTA0IDU4NSA1MDQgNTg5LjFDNDg4LjEgNTkwLjUgNDc1LjMgNjAyLjggNDczLjMgNjE4LjcgNDcxLjMgNjM0LjYgNDgwLjYgNjQ5LjcgNDk1LjcgNjU1IDUxMC44IDY2MC4zIDUyNy41IDY1NC41IDUzNiA2NDAuOSA1NDQuNSA2MjcuMyA1NDIuMSA2MDkuNyA1MzAuNyA1OTguNloiIGNsYXNzPSJzdDAiLz48L2c+PC9nPjwvZz48L2c+PC9nPjwvc3ZnPg==;" vertex="1" parent="1">
                    <mxGeometry x="395" y="420" width="30.31" height="30" as="geometry"/>
                </mxCell>
                <mxCell id="23" value="" style="shape=image;editableCssRules=.*;verticalLabelPosition=bottom;labelBackgroundColor=default;verticalAlign=top;aspect=fixed;imageAspect=0;image=data:image/svg+xml,PHN2ZyB4bWxuczp4bGluaz0iaHR0cDovL3d3dy53My5vcmcvMTk5OS94bGluayIgeG1sbnM9Imh0dHA6Ly93d3cudzMub3JnLzIwMDAvc3ZnIiBvdmVyZmxvdz0iaGlkZGVuIiB4bWw6c3BhY2U9InByZXNlcnZlIiBoZWlnaHQ9Ijk3IiB3aWR0aD0iOTYiIHZpZXdCb3g9IjAgMCA5NiA5NyI+PHN0eWxlIHR5cGU9InRleHQvY3NzIj4uc3QwIHsgZmlsbDogbGlnaHQtZGFyayhyZ2IoMCwgMCwgMCksIHJnYigyNTUsIDI1NSwgMjU1KSk7IGZpbGwtcnVsZTogbm9uemVybzsgZmlsbC1vcGFjaXR5OiAxOyB9IDwvc3R5bGU+PGcgdHJhbnNmb3JtPSJ0cmFuc2xhdGUoLTMyNCAtMzA1KSI+PGc+PGc+PGc+PGc+PHBhdGggZmlsbC1vcGFjaXR5PSIxIiBmaWxsLXJ1bGU9Im5vbnplcm8iIGZpbGw9IiMwMDAwMDAiIGQ9Ik0zNzIgMzkyLjNDMzY1LjUgMzkyLjMgMzU5LjggMzg3LjcgMzU4LjQgMzgxLjQgMzU2LjkgMzc1IDM2MC4xIDM2OC41IDM2NiAzNjUuN0wzNjYgMzIxLjdDMzY2IDMxOC40IDM2OC43IDMxNS43IDM3MiAzMTUuNyAzNzUuMyAzMTUuNyAzNzggMzE4LjQgMzc4IDMyMS43TDM3OCAzNjUuN0MzODMuOSAzNjguNSAzODcgMzc1IDM4NS42IDM4MS40IDM4NC4xIDM4Ny43IDM3OC41IDM5Mi4yIDM3MiAzOTIuM1pNMzg0IDM2Mi4zIDM4NCAzMjEuN0MzODQgMzE1LjEgMzc4LjYgMzA5LjcgMzcyIDMwOS43IDM2NS40IDMwOS43IDM2MCAzMTUgMzYwIDMyMS43TDM2MCAzNjIuM0MzNTMuMSAzNjcuNSAzNTAuMyAzNzYuNSAzNTMgMzg0LjYgMzU1LjcgMzkyLjggMzYzLjQgMzk4LjMgMzcyIDM5OC4zIDM4MC42IDM5OC4zIDM4OC4zIDM5Mi44IDM5MSAzODQuNiAzOTMuNyAzNzYuNSAzOTAuOSAzNjcuNSAzODQgMzYyLjNaIiBjbGFzcz0ic3QwIi8+PHBhdGggZmlsbC1vcGFjaXR5PSIxIiBmaWxsLXJ1bGU9Im5vbnplcm8iIGZpbGw9IiMwMDAwMDAiIGQ9Ik0zNzQgMzY4LjUgMzc0IDM0NC4zIDM3MCAzNDQuMyAzNzAgMzY4LjVDMzY1IDM2OS41IDM2MS41IDM3NC4yIDM2Mi4xIDM3OS4zIDM2Mi42IDM4NC40IDM2Ni45IDM4OC4zIDM3MiAzODguMyAzNzcuMSAzODguMyAzODEuNCAzODQuNCAzODEuOSAzNzkuMyAzODIuNSAzNzQuMiAzNzkgMzY5LjUgMzc0IDM2OC41WiIgY2xhc3M9InN0MCIvPjwvZz48L2c+PC9nPjwvZz48L2c+PC9zdmc+;" vertex="1" parent="1">
                    <mxGeometry x="395" y="390" width="29.69" height="30" as="geometry"/>
                </mxCell>
                <mxCell id="24" value="" style="shape=image;editableCssRules=.*;verticalLabelPosition=bottom;labelBackgroundColor=default;verticalAlign=top;aspect=fixed;imageAspect=0;image=data:image/svg+xml,PHN2ZyB4bWxuczp4bGluaz0iaHR0cDovL3d3dy53My5vcmcvMTk5OS94bGluayIgeG1sbnM9Imh0dHA6Ly93d3cudzMub3JnLzIwMDAvc3ZnIiBvdmVyZmxvdz0iaGlkZGVuIiB4bWw6c3BhY2U9InByZXNlcnZlIiBoZWlnaHQ9Ijk2IiB3aWR0aD0iOTYiIHZpZXdCb3g9IjAgMCA5NiA5NiI+PHN0eWxlIHR5cGU9InRleHQvY3NzIj4uc3QwIHsgZmlsbDogbGlnaHQtZGFyayhyZ2IoMCwgMCwgMCksIHJnYigyNTUsIDI1NSwgMjU1KSk7IGZpbGwtcnVsZTogbm9uemVybzsgZmlsbC1vcGFjaXR5OiAxOyB9IDwvc3R5bGU+PGcgdHJhbnNmb3JtPSJ0cmFuc2xhdGUoLTU5MiAtMzEyKSI+PGc+PHBhdGggZmlsbC1vcGFjaXR5PSIxIiBmaWxsLXJ1bGU9Im5vbnplcm8iIGZpbGw9IiMwMDAwMDAiIGQ9Ik02NzQgMzc2IDYwNiAzNzYgNjA2IDMzMiA2NzQgMzMyIDY3NCAzNzZaTTY3NiAzMjYgNjA0IDMyNkM2MDEuOCAzMjYgNjAwIDMyNy44IDYwMCAzMzBMNjAwIDM3OEM2MDAgMzgwLjIgNjAxLjggMzgyIDYwNCAzODJMNjMyIDM4MiA2MzIgMzg4IDYyMiAzODggNjIyIDM5NCA2NTggMzk0IDY1OCAzODggNjQ4IDM4OCA2NDggMzgyIDY3NiAzODJDNjc4LjIgMzgyIDY4MCAzODAuMiA2ODAgMzc4TDY4MCAzMzBDNjgwIDMyNy44IDY3OC4yIDMyNiA2NzYgMzI2WiIgY2xhc3M9InN0MCIvPjwvZz48L2c+PC9zdmc+;" vertex="1" parent="1">
                    <mxGeometry x="680" y="490" width="54" height="54" as="geometry"/>
                </mxCell>
                <mxCell id="26" value="" style="shape=image;editableCssRules=.*;verticalLabelPosition=bottom;labelBackgroundColor=default;verticalAlign=top;aspect=fixed;imageAspect=0;image=data:image/svg+xml,PHN2ZyB4bWxuczp4bGluaz0iaHR0cDovL3d3dy53My5vcmcvMTk5OS94bGluayIgeG1sbnM9Imh0dHA6Ly93d3cudzMub3JnLzIwMDAvc3ZnIiBvdmVyZmxvdz0iaGlkZGVuIiB4bWw6c3BhY2U9InByZXNlcnZlIiBoZWlnaHQ9Ijk2IiB3aWR0aD0iOTgiIHZpZXdCb3g9IjAgMCA5OCA5NiI+PHN0eWxlIHR5cGU9InRleHQvY3NzIj4uc3QwIHsgZmlsbDogbGlnaHQtZGFyayhyZ2IoMCwgMCwgMCksIHJnYigyNTUsIDI1NSwgMjU1KSk7IGZpbGwtcnVsZTogbm9uemVybzsgZmlsbC1vcGFjaXR5OiAxOyB9IDwvc3R5bGU+PGcgdHJhbnNmb3JtPSJ0cmFuc2xhdGUoLTEwMzAgLTMxMikiPjxnPjxnPjxnPjxnPjxwYXRoIGQ9Ik0xMTAzLjU0IDMzM0MxMTAxLjg4IDMyNy43MzIgMTA5Ni4yNyAzMjQuODA1IDEwOTEgMzI2LjQ2MiAxMDg3Ljg4IDMyNy40NDMgMTA4NS40NCAzMjkuODg0IDEwODQuNDYgMzMzTDEwNDUgMzMzIDEwNDUgMzM5IDEwODQuNDYgMzM5QzEwODYuMTIgMzQ0LjI2OCAxMDkxLjczIDM0Ny4xOTUgMTA5NyAzNDUuNTM4IDExMDAuMTIgMzQ0LjU1NyAxMTAyLjU2IDM0Mi4xMTYgMTEwMy41NCAzMzlMMTExMyAzMzkgMTExMyAzMzNaTTEwOTQgMzQwQzEwOTEuNzkgMzQwIDEwOTAgMzM4LjIwOSAxMDkwIDMzNiAxMDkwIDMzMy43OTEgMTA5MS43OSAzMzIgMTA5NCAzMzIgMTA5Ni4yMSAzMzIgMTA5OCAzMzMuNzkxIDEwOTggMzM2IDEwOTggMzM4LjIwOSAxMDk2LjIxIDM0MCAxMDk0IDM0MFoiIGNsYXNzPSJzdDAiLz48cGF0aCBkPSJNMTA5MCAzNzRDMTA4NS42MyAzNzQuMDA2IDEwODEuNzggMzc2LjgzNyAxMDgwLjQ2IDM4MUwxMDQ1IDM4MSAxMDQ1IDM4NyAxMDgwLjQ2IDM4N0MxMDgyLjEyIDM5Mi4yNjggMTA4Ny43MyAzOTUuMTk1IDEwOTMgMzkzLjUzOCAxMDk2LjEyIDM5Mi41NTcgMTA5OC41NiAzOTAuMTE2IDEwOTkuNTQgMzg3TDExMTMgMzg3IDExMTMgMzgxIDEwOTkuNTQgMzgxQzEwOTguMjIgMzc2LjgzNyAxMDk0LjM3IDM3NC4wMDYgMTA5MCAzNzRaTTEwOTAgMzg4QzEwODcuNzkgMzg4IDEwODYgMzg2LjIwOSAxMDg2IDM4NCAxMDg2IDM4MS43OTEgMTA4Ny43OSAzODAgMTA5MCAzODAgMTA5Mi4yMSAzODAgMTA5NCAzODEuNzkxIDEwOTQgMzg0IDEwOTQgMzg2LjIwOSAxMDkyLjIxIDM4OCAxMDkwIDM4OFoiIGNsYXNzPSJzdDAiLz48cGF0aCBkPSJNMTA2NSAzNTBDMTA2MC42MyAzNTAuMDA2IDEwNTYuNzggMzUyLjgzNyAxMDU1LjQ2IDM1N0wxMDQ1IDM1NyAxMDQ1IDM2MyAxMDU1LjQ2IDM2M0MxMDU3LjEyIDM2OC4yNjggMTA2Mi43MyAzNzEuMTk1IDEwNjggMzY5LjUzOCAxMDcxLjEyIDM2OC41NTcgMTA3My41NiAzNjYuMTE2IDEwNzQuNTQgMzYzTDExMTMgMzYzIDExMTMgMzU3IDEwNzQuNTQgMzU3QzEwNzMuMjIgMzUyLjgzNyAxMDY5LjM3IDM1MC4wMDYgMTA2NSAzNTBaTTEwNjUgMzY0QzEwNjIuNzkgMzY0IDEwNjEgMzYyLjIwOSAxMDYxIDM2MCAxMDYxIDM1Ny43OTEgMTA2Mi43OSAzNTYgMTA2NSAzNTYgMTA2Ny4yMSAzNTYgMTA2OSAzNTcuNzkxIDEwNjkgMzYwIDEwNjkgMzYyLjIwOSAxMDY3LjIxIDM2NCAxMDY1IDM2NFoiIGNsYXNzPSJzdDAiLz48L2c+PC9nPjwvZz48L2c+PC9nPjwvc3ZnPg==;" vertex="1" parent="1">
                    <mxGeometry x="424.69" y="393.75" width="49" height="48" as="geometry"/>
                </mxCell>
                <mxCell id="28" value="Define &lt;b&gt;&lt;font style=&quot;color: rgb(0, 76, 153);&quot;&gt;parameter searchspace&lt;/font&gt;&lt;/b&gt; for finding the best possible parameter setting" style="text;html=1;align=center;verticalAlign=middle;whiteSpace=wrap;rounded=0;" vertex="1" parent="1">
                    <mxGeometry x="230" y="392.75" width="140" height="50" as="geometry"/>
                </mxCell>
                <mxCell id="32" value="" style="group" vertex="1" connectable="0" parent="1">
                    <mxGeometry x="486" y="381" width="60" height="73.5" as="geometry"/>
                </mxCell>
                <mxCell id="31" value="" style="rounded=1;whiteSpace=wrap;html=1;fillColor=#ffe6cc;strokeColor=#d79b00;" vertex="1" parent="32">
                    <mxGeometry width="60" height="73.5" as="geometry"/>
                </mxCell>
                <mxCell id="25" value="" style="shape=image;editableCssRules=.*;verticalLabelPosition=bottom;labelBackgroundColor=default;verticalAlign=top;aspect=fixed;imageAspect=0;image=data:image/svg+xml,PHN2ZyB4bWxuczp4bGluaz0iaHR0cDovL3d3dy53My5vcmcvMTk5OS94bGluayIgeG1sbnM9Imh0dHA6Ly93d3cudzMub3JnLzIwMDAvc3ZnIiBvdmVyZmxvdz0iaGlkZGVuIiB4bWw6c3BhY2U9InByZXNlcnZlIiBoZWlnaHQ9Ijk4IiB3aWR0aD0iOTYiIHZpZXdCb3g9IjAgMCA5NiA5OCI+PHN0eWxlIHR5cGU9InRleHQvY3NzIj4uc3QwIHsgZmlsbDogbGlnaHQtZGFyayhyZ2IoMCwgMCwgMCksIHJnYigyNTUsIDI1NSwgMjU1KSk7IGZpbGwtcnVsZTogbm9uemVybzsgZmlsbC1vcGFjaXR5OiAxOyB9IDwvc3R5bGU+PGcgdHJhbnNmb3JtPSJ0cmFuc2xhdGUoLTg5MiAtMTU4KSI+PGc+PGc+PGc+PGc+PHBhdGggZmlsbC1vcGFjaXR5PSIxIiBmaWxsLXJ1bGU9Im5vbnplcm8iIGZpbGw9IiMwMDAwMDAiIGQ9Ik05MzggMTgxQzkzOCAxODQuMzE0IDkzNS4zMTQgMTg3IDkzMiAxODcgOTI4LjY4NiAxODcgOTI2IDE4NC4zMTQgOTI2IDE4MSA5MjYgMTc3LjY4NiA5MjguNjg2IDE3NSA5MzIgMTc1IDkzNS4zMTQgMTc1IDkzOCAxNzcuNjg2IDkzOCAxODFaIiBjbGFzcz0ic3QwIi8+PHBhdGggZmlsbC1vcGFjaXR5PSIxIiBmaWxsLXJ1bGU9Im5vbnplcm8iIGZpbGw9IiMwMDAwMDAiIGQ9Ik05MzIgMTY2QzkzMiAxNjcuNjU3IDkzMC42NTcgMTY5IDkyOSAxNjkgOTI3LjM0MyAxNjkgOTI2IDE2Ny42NTcgOTI2IDE2NiA5MjYgMTY0LjM0MyA5MjcuMzQzIDE2MyA5MjkgMTYzIDkzMC42NTcgMTYzIDkzMiAxNjQuMzQzIDkzMiAxNjZaIiBjbGFzcz0ic3QwIi8+PHBhdGggZmlsbC1vcGFjaXR5PSIxIiBmaWxsLXJ1bGU9Im5vbnplcm8iIGZpbGw9IiMwMDAwMDAiIGQ9Ik05NDkgMTg0Qzk0OSAxODUuNjU3IDk0Ny42NTcgMTg3IDk0NiAxODcgOTQ0LjM0MyAxODcgOTQzIDE4NS42NTcgOTQzIDE4NCA5NDMgMTgyLjM0MyA5NDQuMzQzIDE4MSA5NDYgMTgxIDk0Ny42NTcgMTgxIDk0OSAxODIuMzQzIDk0OSAxODRaIiBjbGFzcz0ic3QwIi8+PHBhdGggZmlsbC1vcGFjaXR5PSIxIiBmaWxsLXJ1bGU9Im5vbnplcm8iIGZpbGw9IiMwMDAwMDAiIGQ9Ik05NTIgMTcxQzk1MiAxNzMuMjA5IDk1MC4yMDkgMTc1IDk0OCAxNzUgOTQ1Ljc5MSAxNzUgOTQ0IDE3My4yMDkgOTQ0IDE3MSA5NDQgMTY4Ljc5MSA5NDUuNzkxIDE2NyA5NDggMTY3IDk1MC4yMDkgMTY3IDk1MiAxNjguNzkxIDk1MiAxNzFaIiBjbGFzcz0ic3QwIi8+PHBhdGggZmlsbC1vcGFjaXR5PSIxIiBmaWxsLXJ1bGU9Im5vbnplcm8iIGZpbGw9IiMwMDAwMDAiIGQ9Ik05NjcuOSAxOTEuNUM5NjcuNyAxOTAuNiA5NjYuOSAxOTAgOTY2IDE5MEw5MTQgMTkwQzkxMy4xIDE5MCA5MTIuMyAxOTAuNiA5MTIuMSAxOTEuNSA5MTEuOSAxOTIuNCA5MTIuMyAxOTMuMyA5MTMuMSAxOTMuNyA5MTMuMSAxOTMuNyA5MTYuMSAxOTUuNCA5MTYuMSAxOTlMOTE2LjEgMjQ1QzkxNi4xIDI0OC4zIDkxOC44IDI1MSA5MjIuMSAyNTFMOTU4LjEgMjUxQzk2MS40IDI1MSA5NjQuMSAyNDguMyA5NjQuMSAyNDVMOTY0LjEgMTk5Qzk2NC4xIDE5NS40IDk2Ni45IDE5My44IDk2NyAxOTMuOCA5NjcuNyAxOTMuMyA5NjguMiAxOTIuNCA5NjcuOSAxOTEuNVpNOTU0IDI0MyA5NDIgMjQzIDk0MiAyMzkgOTU0IDIzOSA5NTQgMjQzWk05NTQgMjM1IDk0MiAyMzUgOTQyIDIzMSA5NTQgMjMxIDk1NCAyMzVaTTk1NCAyMjcgOTQyIDIyNyA5NDIgMjIzIDk1NCAyMjMgOTU0IDIyN1pNOTU0IDIxOSA5NDIgMjE5IDk0MiAyMTUgOTU0IDIxNSA5NTQgMjE5Wk05NTQgMjExIDk0MiAyMTEgOTQyIDIwNyA5NTQgMjA3IDk1NCAyMTFaTTk2MCAxOTkgOTYwIDIwMC45Qzk1Ni45IDE5OS43IDk1MS45IDE5OCA5NDcgMTk4IDk0MS42IDE5OCA5MzguMyAxOTguOSA5MzQuOSAxOTkuOCA5MzEuMiAyMDAuOCA5MjcuMyAyMDEuOCA5MjAgMjAyTDkyMCAxOTlDOTIwIDE5NyA5MTkuNCAxOTUuMyA5MTguNyAxOTRMOTYxLjMgMTk0Qzk2MC42IDE5NS4zIDk2MCAxOTcgOTYwIDE5OVoiIGNsYXNzPSJzdDAiLz48L2c+PC9nPjwvZz48L2c+PC9nPjwvc3ZnPg==;" vertex="1" parent="32">
                    <mxGeometry x="2.4499999999999886" y="9" width="55.1" height="56.25" as="geometry"/>
                </mxCell>
                <mxCell id="33" value="&lt;b&gt;&lt;font style=&quot;color: rgb(204, 102, 0);&quot;&gt;Objective&lt;/font&gt;&lt;/b&gt; to be optimized" style="text;html=1;align=center;verticalAlign=middle;whiteSpace=wrap;rounded=0;" vertex="1" parent="1">
                    <mxGeometry x="570" y="392.75" width="80" height="50" as="geometry"/>
                </mxCell>
                <mxCell id="34" value="" style="rounded=1;whiteSpace=wrap;html=1;fillColor=none;fontColor=#333333;strokeColor=#666666;arcSize=13;" vertex="1" parent="1">
                    <mxGeometry x="222" y="480" width="436" height="70" as="geometry"/>
                </mxCell>
                <mxCell id="36" value="" style="shape=image;verticalLabelPosition=bottom;labelBackgroundColor=default;verticalAlign=top;aspect=fixed;imageAspect=0;image=data:image/png,iVBORw0KGgoAAAANSUhEUgAAAPwAAABMCAYAAABJYdoSAAAAAXNSR0IArs4c6QAAAIRlWElmTU0AKgAAAAgABQESAAMAAAABAAEAAAEaAAUAAAABAAAASgEbAAUAAAABAAAAUgEoAAMAAAABAAIAAIdpAAQAAAABAAAAWgAAAAAAAACQAAAAAQAAAJAAAAABAAOgAQADAAAAAQABAACgAgAEAAAAAQAAAPygAwAEAAAAAQAAAEwAAAAAh/9GGgAAAAlwSFlzAAAWJQAAFiUBSVIk8AAAHtpJREFUeAHtXQl8lNW1P8lMkklCVvaQoCAgCoILghsa0VbcRVDBrfr0Vauv1tq+tj/7Xoutb+3ya20rWltfrYJrpVpE6waCWsAFFxAViSwhQPY9M5lM8v7/L/mSL5NZ7vfNfMlM+M6PYSbfd5dzz73n3nPPPedcEQccCjgUOGwokBKqpfm3ri7tSpEf97wrDZXGeeZQwKFAwlFgfUqKvEGs6u9ftDwUdgMYPv+21cu7unqZPVQe55lDAYcCCU4BMP49oZi+l+ENq3ppgrfFQc+hgEMBRQqkdMnZ9Q8sWq8nT9V/QIRfh9+l+t/Ot0MBhwLJTwHD1lxrjMbwFOOTv2lOCxwKOBQIQYFSI3+n9IjyXN0dcCjgUGCYUkAX7VMl1RHjh2kfO81yKNBHgR4+d/c9Cf+rsyv8u1jeQJMovVrDWApy8g4pBXCqYwtwfAwF2NWeuLXFAt+gTWexfne0I7gCj8jPF6RLTnp8qN/WIeILdElVa5fsqO6U7dVdUlbfJQEg0tEp0h4QsWuCiRvBnYJ6KTBpvEfOPDFfUnT1r5H5zQ4Z5G3H2PD6OqWtrVPKq7xyqLpdGtsC0omx0YmBEcDHToYszHXLRfNHSarent6W2vTDSC9WEYFmbHcraFO2r022lbVIR0c3PRQxK2W6iCs8Ge9f5qTJ4mORLBgxxVoiJutpXACdWYMJoKK5exL4BJPAlopO2VyBjka9qRGIELF856XtFLh9abF0gEnjDVqX9/S7HwO7qSUgdY1+qaxtlwOYBL7cj8kAv8kg8RoeZKirF46TknEZtgz3eNFozrE5sgg0+XR3qzy3rkoaWwPKNIjI8EQwKz1eaIYop2ecuNBjY7JTtM/xYzG1sgfxaWrrkj9+EJCfb/FLi9/emT0Eds4jBQrYJXZrQ6NnfLgxQAqw8vIzuThTureCKVLb0C6vbq6XrZ83SSBOk052ZmpCMzu7hBMTaTLzqGyZNXWE/OxPe6Sq3q/QW1g8lVINdiJ2NFb9nIwUufMUt+y4xSOPXpwhFxzlslWcG+xmOvVZowAHfCf+y89Nkyu+Mlp+cMMRctEZI2X8yPTDbnxwm3PRmdiCKIo5icnwxnGAzqX+4KKpLll1eYa8cKVHRqQpts5YjvN7WFKAa0NOtkvOgB7hrusmyvmnjxyW7YzUqOmTsiD9pEVK0vsu8Rm+F1X8wKp/xsRU2XyjRxYf7RJuBRxwKKBTgAq90jn58s+LiqR4TIb++LD4Lj0pX0m6SS6G7+m6CTkp8vsLM+Rrx7mh3T8s+tNppAkKHFWSKTeD6UcXqK16JopOyKTc4kybmAWGj84MScnwpDpX919+JV1+cGqaZLgSsh8cpIaQAp6MVLntimKZPCEz4ZVw8SBTzgg1JkhahteJ9D0wPJV5DjgUCKZApidVrrlgrIwttPOoKbjWofk7PU2NldVSDU0blGplO/+zNF1GZzkbeiWCHWaJsjNdsvDUQs1g5zBresjmJj3Ds1XjsadfcV66svFBSEo4D4ctBWZMyZYTpuYM2/aZaVhUwxszhQ1Ii0W3Haa0ZXWdcrClS/zQshN4ZuiBFD4mO1WOyEuRdGIRXd+g5Q333ywY7EzMTZE9jdELykR9lAiMRiPhcoWSG7xoUyvsHBp8Xb2TjLGscDiqPi/GBOYyTMWtMCirghEScQyFj2q5wemoB5kAmukAjyoYOMHqEXWxq/re6Cni+83yaUZLizlfe2evSTVpmQHRLR+GNrnZbm28hOsfFYyoyzoL2vttZc29dajkS6Y0PI9XAfsYHgz9o9f98sKuDqluRcfCFFDHiR2qMb07RUZmpsik/BS5Hyv0GAx0baSpYB6UphDlnDTeBYYHN0YA2uo/uzhDZmOC4IDTIRy5jGn0tDwZoDmwF2UdaOqUT6q65Hfv+WVHbZdwi6FqBKGXZ/y+79x0uXCaqxc34sW66r0iq7b75RdbOuJ2HLnxukwZN6K7dr39rKsWDP/Ytg757XuRaWnE2+xvDtBH1xyUCpjJtvkCWhuNkz4nPO5LR+CMfTo00AthWMNxo6CIDolKYV6ajMpPl8o6zJ6DAC7MptrYCTWA4lw/q3h3exPoE70yWxi+ESvfNX/1yfp9nREHJyeBem+XfFErMv3BNll2rEu+d2q6tuqbpYkbA+RISAvRgJPO0YWp2kQTLa3K+yPzXHJqichNJ7qlAUz5a5gBv10ekE3wBbAC509xhcRtTLbIcugqFk1zy1WgLSWmWGFKIaSrEPpOmjnfe3a6zCtyyS0v+qQ1znxfAzPQB/9SIQ3NHf2kLGN7OPG0dwSkGY4zB6ra5a2PGjSnlpkQz7kvNwvpMNbKz3HbzvD1TR1SUYmx/169ZvdPPwCrk5RqGyn70bQ4VWGlsYXhP6zs0ga8qmEMJyYy4srtAXnngE823eCxtEpylVeB2FklqJaeAvNg6/Hv89PE60+Tdw8G5Ia/+eAVaG7FjzhN4OXscalyz5lp8o2X2nslpiBslP+MSAe8vBjGTd6ODLkZTK9G2ehVs68/+rxZGlvCM3twKcxDxlkNR5HyQ15ZtGCMaW82MkMaJEq7gDhW1vjl4ecqhEwfkbY2IKHC7KzWsFOMHxaf13T27tfNlvop8j60FUuKhb4pSADjKqKdCXuP+SUu2XVbltx+Yppkxdn+4/Kj3VJi2HubpbFyeoza+bBsnKQgOamWmQrO2LkXs6BFeP/TZm0LYDo7OkaVKUyXjQz7Dvrk54/ulbohYHYz+NrC8HUQ060CZ8pHPrLG8JD+lIBbicGCe0vTNPv/7DgyfRok2nhPIuHoQfF+LD5xAxTVDHdOq0Dz2c/gFmoa0OUqlmimy0UGSh8vvVUTdntipUy78tjC8LEi67G40aB2ORpwm/ElAm4MFlD5dALE8Devz4zrqpwF8XQwWsEJmJ9EgmxY0ZkFetf5bbLDpgi/54BX3Ng22PEx29ZI6S2yVqQicdQDbfspRX2d0uQTKW/qkpqglZ/jSB9Q+pjiXv7m47EcmhzNjJazszbiDlhD2o3Vce2ugJw7CZpwvdLIzYnLW55EPLvYI+eu8mrHebEWWkRDI9JoENsQK87MTwUWHVuyDIq3ZgS3qEFwC67e/QAdxOYZ+4l+4CVFCMNkEnjsV6voM26yaBmR5dJs983mU03PicqPAV6ObcPfN9VqvvCqeYPT2cLwy2a6ZRkcW3pBH5TsT/BkO0QgnMRoR00b9wZk7RcB2dnQfWx3zMgUWToDXBnU971lhflxENFyNuBUIBoQldf3dEo1pIHBts6bCq3469d4ZMHK+DB9tLYm4nsexy29YFz/eQqdwn7hO2rnOzC4OYGTQb/Afn/brhbxYczw/YnTcyTTpPMEy6bmvLLO32/yiBd9MiFxHGFhEjJb/7GTs2XBvAJ5/MVD8vEXLZbaYuBKs9VHSE9mjcCw6RBHaWyTAyXb1ZgY+KG05e/Z2imcLgyo/Dfv+rU4eQNehHiwp6FTrnzWJ49ekiHFVEhFwDVE9pgeTcZKf8dJbln+lj/ikWVMlSR4ZjJuOOBqnobzd6o8JozN0D5nnVygMTtDablx/mpc8cOVY3zOfH95rcp0PmMZifCb0pELzHHVeWMhVdTIP3BUaZYW9jC8Bepwb+2ygA2HzitlAXkAmn3O5Kqw9VCnzHioTZafkSZLjnGblo6pZyjwcM+mWmN3OnbQd05Pk8c+6RhUXUIoLM3QK1T+wXxGDXu6hZWAwS+febVKarHPTqb2RqItjxcvP2e07D3QphkuRUob/M4CiwUXMbR/l2Hf/t3X2i11JgfAPW/65V6utiYYl+OOFoKzxqTKjFGp8oPT0swxPgbhY5AuzsF+nma6DthDAU6uW7Y1yHaY1A4XZtcpRSlp9rQcMHyN/kjp28QwVypv0BP92wa/ZvsdS8XcTtDkVvVDJt0PJeSLUP79bJNf8n/RKo99HDBlUXUMJoqvQnHogH0UoDJww/v1sEKzr46hLPlI6A3MWvElPcOvugxx7q7yyB0Ip61q2RfPTuIqQrH+rtd8mqShWjalhEsRp4+TjQP2UCAb2vPvIM4dfeInFWXaU8kQlpoHU2GztgVJz/AU1Rja+idnpcnDCHtl9Qw/uN/oBEOvOgbQNH5yEUk3F8+0b/7u+Xiwr3oC+/IHTDicMN5/lsWAnHQJduaK4F4b+DedWKjdvmVJkZw2K8+0kmtgiYnzxMNBahKSfg9vbO+lsP2elO+Rb73SLlTKmQEyz0mYOBgdl0xIR5yjoFGfkJva62Cisg/kim8Gbpjpkgc/6NvIN8HxSMWybcZoxE8n0ibrM4PbcEt7SekoKYHmf83GGmmhq2OSg8v86XXkm2eSkR70i1+xMF1O+7NXybmE4vjS6W755VfT4+KXb4pmYNg756XJQx929OJa2SIypTB6KYtgT3/b39vF0QJEp5UxxQnH5IgPl5o8C0ccC0p/Y1FJ+duWFb4NQRQqoNSqaO6Uph73Y9p+50EUpnabZ992Ens6FGJrrvDIFau9WkCHUD1Dw45vneyWO+em9RngDIGMTDpQomhu7658/e6AnFYSXVTLhR87rQaTEVphS9+EDz3maIRFGqSnw/cdBjX0f+fe2044ZXaudm0VXViDJTIa/gxnsIXhGQyCR12RQJdE5yJoxf+cnSbHj48+yCOVF/zuVDDN9TDoWfF+n7isp6Hdx1vXe7QgGPqzofoms3PrQJdiwkroAe6Gi21UQPKTcCz4fmVyjVDuqR94Zr9UKpi5khnnHpsrjLlekK9Ak6hE60kA2p13WqHsKm+TcljgGYEReIYz2MLwDF8VDbqHt8jmAwEpXdW9nxoJQ5ZlM9wyCnbiS6a7pDgGF1BOKAwWwagtRu09teI/xLn5cWCWRABKPlMKyPDd2NRhD0/pI6pBD0j2fRjwLF3tSy7lHeiv6pdOHcXm7Y3ah9SZMDpDeMtK3gi3ZmLrhqLUKtCQ57gpI2TfIfj668Xg+1CNT4pxmaQZaEQgD97o2lfQwNx6Ffobffzrfwd/R0vP94cQvYfuxmbAFoYvyrHGTHSu+S2kA8K9b4mcONYlLy3NMB3sQCfA3GL4ckPpthdhqHSgTTZDW9u5pdDrUvnmZGS8ipuDnCGm6JYaDU6CF95EbI/2wA8hWYCYjkbY6P0IbWUW9lf5hB9S5m8bqmXxgtFyPGzrrcIJ00fI8yhHn4BY7pdY9efMyDU1iXZAZHwK1nzdUQetYmM+H8eKSX6PHgCDQSjNAgdhrP7fXOW2YPWf9Yc2eWYHkIg+/kOiuRiSgqbNxluK8k9cimg61uajkOXH4yG1rTrQqYjORCpASeim2WlJdZbPc2NeDhELcNKgD/oTL1fK/U/t10JlWSkvF5LCCIPXHsvYh3BaZscaA21OnYgLL4DYYH6stDnq0K+2EDuNrqAlWFnjAXSrvXltu3xwoG+VVi4XHfANxJrjANHhdCrEjA/0F0P4bZzLOCmVw/NPFe6Y65YrcRxpFox1ms2rp9cnUv1vlW/mGTeKJyLxGR97D3rlvsfLzfKohipXx3m4a91IbUbQNXv1NF12LysdbZu/vQpdVdNEFOk5KHbVqRbVl46a+H89JU1uRSw0PTR131vzv9ghVATyPjmzA5WRcDm2yEj5MJIpUIx7p2Ppg3DBM3162LVFkHb0QaPjx78XIfpsPvQSZoERf3iFlhJPoKKfIrjljlqfbK/uVKbP+bitR6n8KMjvrfDKeJMXN5aM88jcmTmycat5b69Q6DCCzoefNcuso3tC8IZKFObZOOLOzurpJk5IO75slRm4e90MFOa75fYlE+SZ1+Go0xBZYW2m3HinjczwIMKGfRjlXeav6qEonZaaLjeuwYxJgsYIjPBinnW6K6VBEkXlXPStmTI+hub8ShztMbIu83PSUAWmLYWYBzsg01DVihDOYPobj4/YPb3lFmFSe/Vqj5zypzZtP6+yrzsTMfdi1mOAmOvfrZdlMF01A8Tvwvmj4PKK05IP48P0GTjyNQ3ooxyI9UYgbvsgNZhleE4Uk3GJ5beuLpbVr1TJ1p1NKBaFdf8zVjGkv/u3NgQqHOhlddh3QZNsFi6BlnzlpSnyMAxLNuwLWPYM0zzSoJG2CtQHEJqxPVPmWTT3phe8csCEeN1dS/f/9KQbGcNW9U54AC5EyOrxI9ToTm3/Ozdmyq/e8csTiP67p7HvYgcjXky3BIZGt8InP1YgZrv2QzttAchYF505SnJxCSJX54MQpa1sEVjOrKnZ0N5nq/etji/yNtQPFNs+Rcy8Uvjge2AbYBZ4gcayC8fKEv8YLTov4+B7EW0nnsDFhNsOBvU4WAO6mSg8aq9DN4LQ0QEwfNSkIatdCNFxwZEuqYQuYBUuN/gdzsUZe45IcoXRSIpvI7DjKRVwZb5pllt+CJ911RDUxnL4+yBuouG2gnXxyIuebqFisQfnI4JXwU/+p1HsCQbkwwNOkrecgFtTsIWwCsz5f5go7zYx0WWgi76PrcDNkAw+q+6S+97pkDf3B7RjPrb5Whx53j7HrYUgs4pXcD4O5mpEkhll4WpmKk9L5xTIvOPypA2mrs+vr5ad+1o1Szj2Fy9WIEMHA8cHlX9krosgKcyZ0X8fHpw+0t8V1bhMIKgO7uMPVLbLpGIL4hkqI348MjwR+gE7oQ02A/UN4Kmny4VBPlQgKhcT+RegNb5qJpJanKg42Him/j0MXn7ITB8c7JRN5Z3yBffG2PLo4jIHQRGOpM4+wtVtccbOUGtLyPY+DkMWvT/Zlh3Y586boE0zIdMbH94ExvkC0s3zaH8rLOFU0OCKfDsUhddholLKYKww6PevsVpfA7rzOi4zQB3KaSX4TAyxFVNphInKONB27G6R+QX5JnL1T8oQUfzceNl4ra86sMrswrn2ARzBVeEmIfp+E21SgRFfRua5ZSbO0LVJBi8sNwkZP9qJUFH90dEYdtVLB+Xb15T0i70XlGzI/9ToNiZdboVj0B9WH1CSJKIyPFtFhq+DjXdBDCKqRh1DzxyPM2R+ooIhT9S0wQnQk49CqtBXCX6vgPJvXgk28wqTFxVuv8EVWN89pUvewpbkZ5v9cgiSSgu2BszOgUL0KPmNxyR1Nwx6zp0MMRx7auujsK8RlBTOQfy7927KFF5yYRpioZ2JyjZ92ChnQwQmo8YCnJBZQiq03lOPzNI+kcpj+liAyr46GM3o5/DGsmj6u3FrPSzyRhofJ+Tv4rEeWYawV398vgKSLEdleFBiePbjgpVtshGhlkeEWDTCFz+0b3bWdMnnuO9N10aTFKs+Cch/nN2lLNYy71HQXxxV6JbrDUq0ejB+A6wyx2FFz9BpwgEY4yAMphiDbf7TGp/Q799k7Mbgomz7uxpa6dc318mZMIFNJthe1qJJDOFw3rytUZMkJpg8hQhXnp3Pj8WpwhTYN5Th1CQSKCyx3StZGay5foV70wbIP5FKH8J35LuV2zt6mV1HhT7uv0XAS9N8yQxc1ns++RCbj4C9AffN+jPzhepYRf5+DQ41FzzhtaTUilxyfN5yUXnx7RrZhkiqyQKUDqgsjGSE1ertlJVrD0qr6g0nQ9h4hvim2XE0UGJ4FsLV8Rdg+Jch3uv77WiFD+X7vZig/gSlVzBwcD6JVX4nVv5kgveg87j4aZ9mdpuIeJOBnn+jGl5oA2meaPhyLG/9rEl2wow2GtSiPSsRFjoZnGpGFaRHlFjYVmWGZ2J26pW4udTq3W8sYzCApwCXPI3zc2jlQ0EtztUve8YruwbxBppQeJh99ib0COc/6ZMNeyFmcNQmGNDddcXT+zXDlQRDrR86n0CUfwpmuTwJUIEyHD0+/ByUYgnuScfw71G28OYYXifOXTgj/t+3/RLLHXJ6WfH+5vHf12GKG82hhP76Vz3rHfJQ0Wbb/xku2+Rk9QikFxrohJ7SzJYav/Rk+seh4d65p9W0iWr8sAhfUgU0/6vXVYdPEOINFzqa8GpuvTiyS1RwI/SyLQzP83H6u1/8lE82crUxJSfYR67XvgxoYi/3vCqwE0dui8A8T0PETybgluqbL7fLVxHm+kdv+Lvvb1dcrQajne2IKPNHrIgr1x6SxuZA1EE4GDixjjdgFfgQ7qXnpGQFaOTy0LMV8gque4p0mYaVsgcrj8tz8tLlVirjTFKJFeaRjzvk06pOBJNw4SaZlH6+51bKNZuHg594cL9+K+5MV7lQUq+DPFIPTftzOzEo8XtaYaoWfSbaLKnnj9f3y5io3sce3QwQR+K+aX+nFiq7FQtPHujPm2V5oWG34YqZEsOnXYmjTToxmYUqBLl4/Z06OMrg7BwBLNKxUgw2banMqoVxypN/PyRvf9Q48P46k43iZFZW7tUUfkeOz5BMBH+gbUAiAC+1pG6CJsuhwPfuk/ek5H1jtfmeDCqNBdAdlneiXwaHkctgUpvJo6qYSw6qSP+zh75bMNh/jxtnuLelCWwsg4liGy/BvBT4fxMhr4sYfMMu/PV29HzzIo0/GAJZBr1W+lNHdQKOCaeNTNX6IxvRdI7GkeJo2AgUhnDiuQABO6ONVZa7ECcEm0HrWCAHYaumwNZ83sxc3MOWqWnHSXM7gJp3PxjzYxjVvP9pk+zGza7t8fDiCkKWQTQmIijmRDgDnT47TwoxqfGWWrvaFVT9gD937/dCsqrQXIcHvMSDhhWLUuLC8MbCabfOoA7Xw0Ls+tluLXwTBx7jr2mrjjGx4m+u4rQcZPCKKpz80Ajmh7iAgntYWvHFE1gXL6RYDJfTO05OE14AqUsu0ZjDKh7xYPhwdbM9/OBfP+CcWXNXVtSzfeY9nwxfERvD65XTBpwWYuecXCgzpmbhjjQ3pBJIJCCu1QmbDEYRmz7ytbiFdgvOz/8Bpxy2meXaDayfFoe5mNQWzC3QLpbMg4+8LtFEbFcwekTaInB1p3ky+ywUkOGVDG9CZQ73TDdy+TPOwB+BKJgPCzHessLQy2ScaVhxJuWlSgnMRWkCyslBPwtl28lsTTBjrQEzl0GLTsOZKmjdG6BZ53XQfEYgEePN7CyX44Ox7dfgVpm/4QiSN8wy7j2t7qbi3J3hoSehDVwxKT4Tf1fEHmWp4SGA0VKNtqoAJz3aEbTCHIJXY5Fe0YDtCTXmiyHNhHoeXJ52m2t8eF0rmjHtGLhyLc7tX/xHjeQiaOXYkemSBdGYzirjR2VIAS5Y4CULGfibOOrk5UCmiO7F+TjDStXgyKwSSjTalLfBLPEAoujQeo6ESUFGFfoEt9fK38SP1npt8CtgCGwd2J50LnZ4F80CTs9j9ZuSBWkSjtn1cuPO8HrBJDYJ0Yi9pXF10DoNHcdvzoxG4J96Pn6zs4MHtt75xnx2/NbxoE5AVwIG4x6EvmU0OHFx4ogEozDBPLEoQ+YckYpYZl1y7fM+4dl8tA4OV+ZSXIJB5Ws04FbJqsdgpLL1fmzEdVCNLX3n4d3jolssDh4fLE8jE/5jfjrXBE9aermR6rbznbF+H7YRvgRzjbeN4cMRlR0U3Enh0iba86HAnZPKebiDbiVMazUGxQAai336K9d6ZM1nAbkPVoNvwwlJl6yi0YwMxVh4dAxSgYM45qT/wGCBNjaMXDNYFR8m9SjM8YcJJRK0meygpy7vYXYjjhCzeUvOy9d55G2E3KbzTqgV0ZiFbHsz9Crrvob0mDRUoArMzq2EA8ODAmrT/PBoa9K1givxX5dE8cnGkTJv29lxW6ZswUr/Cdx/qcz8EroO+v5ja4zrshBjEHv2M3CKMhlKSFE1O0Deb7+auIYmSdehCYCww/AJ0AmhUOAp0v0LM6DoDPU2xDOkn1uUqn20t8YF3LhCG3+HKMb46F1MIPuxh1fZ6xvzOb8TlwKOSJ+AfTMC8dm23OCRo0caudYkomRs/WMyK5MzHNjX1/ocZrdAu0TO4jB8AvYOxfAZQ3wzzkbYOuhHoAlIIgclixRwGN4i4ezMxqAXX0Gkm+0wWR4K2Irjvmuf63/n2lDg4dQZfwo4DB9/msalxHdw8Qadkz7iPfcxSPZmkdkNZd/VYHZHM2+WcsmRngy/PjlQPfywpN/+qbjn/u51filH9F27gY44NyCclh2GNnbj7pQfmQIwbbiHKWjx90bkpM7boaQANeQMvDn/Ua/8N2IQ2LLyQoJYgVt2lyA+wAeUKBwYthRIRTy29cO2dcOkYVzbGWzkv8DwMx9s02ILkjEjXX2l0nTeqPNyWUAuedIr318HO3TnyF2FbMmZpofPtd1h/m2rl8NK68fJ2ZLDD2t2Wh5s6+kKe+UxLjl/ihu+/FpXKhGDTkgrtwVk9edwPoElXawTh1KlTqIhowDF+fr7Fy0nAr2jBH7x6/B3KR86kDwU4OpPk9oiMP8JsLjjlWBjsuHdB4MdOuTQgMcPy7rypk7ZjcCe3KfTPp7m6r2dnzzNdTC1QAG6xerZei3tUrrknq4Uh+F1wiTLN3uSzEsmfhHiuQokq/OSStucNP0osJ58bXzSy/n6Q0e81ynhfDsUSF4KGMV4YysGMDxfkun5DVHxLHyV8rcDDgUcCiQ8BdYTQ67q9Q8s0n7zbyP8P08EvqmSgsOCAAAAAElFTkSuQmCC;" vertex="1" parent="1">
                    <mxGeometry x="401.87" y="503.5" width="76.26" height="23" as="geometry"/>
                </mxCell>
                <mxCell id="39" style="edgeStyle=none;html=1;strokeWidth=3;endSize=0;strokeColor=light-dark(#0F69AF,#56AEFF);" edge="1" parent="1" source="37" target="36">
                    <mxGeometry relative="1" as="geometry"/>
                </mxCell>
                <mxCell id="37" value="Add &lt;b&gt;measurements&lt;/b&gt;" style="text;html=1;align=center;verticalAlign=middle;whiteSpace=wrap;rounded=0;" vertex="1" parent="1">
                    <mxGeometry x="250" y="490" width="120" height="50" as="geometry"/>
                </mxCell>
                <mxCell id="38" value="Get&amp;nbsp;&lt;b&gt;recommendations &lt;/b&gt;for parameter combinations" style="text;html=1;align=center;verticalAlign=middle;whiteSpace=wrap;rounded=0;" vertex="1" parent="1">
                    <mxGeometry x="530" y="490" width="90" height="50" as="geometry"/>
                </mxCell>
                <mxCell id="42" style="edgeStyle=none;html=1;strokeWidth=3;endSize=0;strokeColor=light-dark(#0F69AF,#56AEFF);" edge="1" parent="1">
                    <mxGeometry relative="1" as="geometry">
                        <mxPoint x="478" y="514.8299999999999" as="sourcePoint"/>
                        <mxPoint x="510" y="514.8299999999999" as="targetPoint"/>
                    </mxGeometry>
                </mxCell>
                <mxCell id="43" value="" style="rounded=1;whiteSpace=wrap;html=1;fillColor=none;fontColor=#333333;strokeColor=#666666;arcSize=25;" vertex="1" parent="1">
                    <mxGeometry x="222" y="557" width="436" height="36" as="geometry"/>
                </mxCell>
                <mxCell id="44" value="&lt;b&gt;Measure&lt;/b&gt;" style="text;html=1;align=center;verticalAlign=middle;whiteSpace=wrap;rounded=0;" vertex="1" parent="1">
                    <mxGeometry x="374" y="550" width="120" height="50" as="geometry"/>
                </mxCell>
                <mxCell id="46" style="edgeStyle=none;html=1;strokeWidth=3;endSize=0;strokeColor=light-dark(#0F69AF,#56AEFF);entryX=0.717;entryY=0.4;entryDx=0;entryDy=0;entryPerimeter=0;exitX=0;exitY=0.75;exitDx=0;exitDy=0;rounded=0;curved=1;" edge="1" parent="1" source="38" target="44">
                    <mxGeometry relative="1" as="geometry">
                        <mxPoint x="488" y="524.8299999999999" as="sourcePoint"/>
                        <mxPoint x="520" y="524.8299999999999" as="targetPoint"/>
                        <Array as="points">
                            <mxPoint x="510" y="560"/>
                        </Array>
                    </mxGeometry>
                </mxCell>
                <mxCell id="47" style="edgeStyle=none;html=1;strokeWidth=3;endSize=0;strokeColor=light-dark(#0F69AF,#56AEFF);entryX=0.717;entryY=0.4;entryDx=0;entryDy=0;entryPerimeter=0;exitX=0;exitY=0.75;exitDx=0;exitDy=0;rounded=0;curved=1;" edge="1" parent="1">
                    <mxGeometry relative="1" as="geometry">
                        <mxPoint x="403" y="571.0000000000005" as="sourcePoint"/>
                        <mxPoint x="333" y="529.0000000000005" as="targetPoint"/>
                        <Array as="points">
                            <mxPoint x="360" y="560"/>
                        </Array>
                    </mxGeometry>
                </mxCell>
                <mxCell id="48" style="edgeStyle=none;html=1;strokeWidth=3;endSize=0;strokeColor=light-dark(#CC6600,#FFCC99);" edge="1" parent="1">
                    <mxGeometry relative="1" as="geometry">
                        <mxPoint x="440" y="473" as="sourcePoint"/>
                        <mxPoint x="440" y="503" as="targetPoint"/>
                    </mxGeometry>
                </mxCell>
            </root>
        </mxGraphModel>
    </diagram>
</mxfile>